<svg display="none" 
    xmlns="http://www.w3.org/2000/svg">
    
    <!-- Social icon -->
    <symbol id="fb"  viewBox="0 0 60.734 60.733">
        <g>
        <path d="M57.378,0.001H3.352C1.502,0.001,0,1.5,0,3.353v54.026c0,1.853,1.502,3.354,3.352,3.354h29.086V37.214h-7.914v-9.167h7.914
		v-6.76c0-7.843,4.789-12.116,11.787-12.116c3.355,0,6.232,0.251,7.071,0.36v8.198l-4.854,0.002c-3.805,0-4.539,1.809-4.539,4.462
		v5.851h9.078l-1.187,9.166h-7.892v23.52h15.475c1.852,0,3.355-1.503,3.355-3.351V3.351C60.731,1.5,59.23,0.001,57.378,0.001z"/>
        </g>
    </symbol>
    <symbol id="tw" viewBox="0 0 504.4 504.4">
        <g>
            <path d="M377.6,0.2H126.4C56.8,0.2,0,57,0,126.6v251.6c0,69.2,56.8,126,126.4,126H378c69.6,0,126.4-56.8,126.4-126.4V126.6
			C504,57,447.2,0.2,377.6,0.2z M377.2,189c0,2.8,0,5.6,0,8.4c0,84-64.8,180.8-183.6,180.8c-36.4,0-70.4-10.4-98.8-28.4
			c5.2,0.4,10,0.8,15.2,0.8c30.4,0,58-10,80-27.2c-28.4-0.4-52-18.8-60.4-44c4,0.8,8,1.2,12,1.2c6,0,12-0.8,17.2-2.4
			c-28.8-6-50.8-31.6-50.8-62.4V215c8,4.8,18.4,7.6,28.8,8c-17.2-11.2-28.8-30.8-28.8-52.8c0-11.6,3.2-22.4,8.8-32
			c32,38.4,79.2,63.6,132.8,66.4c-1.2-4.8-1.6-9.6-1.6-14.4c0-35.2,28.8-63.6,64.4-63.6c18.4,0,35.2,7.6,47.2,20
			c14.8-2.8,28.4-8,40.8-15.6c-4.8,14.8-15.2,27.2-28.4,35.2c13.2-1.6,25.6-4.8,37.2-10C400.4,169,389.6,180.2,377.2,189z"/>
        </g>
    </symbol>
    <symbol id="gplus" viewBox="0 0 512 512">
        <g>
            <path d="M53.333,0h405.333C488.122,0,512,23.878,512,53.333v405.333C512,488.122,488.122,512,458.667,512
            H53.333C23.878,512,0,488.122,0,458.667V53.333C0,23.878,23.878,0,53.333,0z"/>
            <path style="fill:#141a20;" d="M306.475,271.104c-8.155-5.624-15.989-11.7-23.467-18.197c1.792-0.469,3.605-0.747,5.376-1.344
            c20.302-6.841,36.837-21.83,45.632-41.365c9.501-21.332,9.694-45.656,0.533-67.136c-5.915-14.207-15.278-26.716-27.243-36.395
            h34.027c5.891,0,10.667-4.776,10.667-10.667c0-5.891-4.776-10.667-10.667-10.667H256c-0.585,0.063-1.163,0.178-1.728,0.341
            c-10.415-0.607-20.849,0.784-30.741,4.096c-20.31,6.836-36.854,21.826-45.653,41.365c-9.501,21.332-9.694,45.656-0.533,67.136
            c13.72,33.265,45.404,55.626,81.344,57.408c2.537,4.866,5.918,9.243,9.984,12.928c-37.867,5.227-119.339,23.381-119.339,83.392
            c0,27.904,13.845,74.667,106.667,74.667c68.779,0,106.667-30.315,106.667-85.333C362.667,311.467,331.52,289.088,306.475,271.104z
            M197.099,190.208c-6.914-16.049-6.837-34.251,0.213-50.24c6.371-14.179,18.36-25.064,33.088-30.037
            c6.393-2.183,13.106-3.286,19.861-3.264c28.496,0.567,53.917,18.051,64.64,44.459c6.914,16.049,6.837,34.251-0.213,50.24
            c-6.371,14.179-18.36,25.064-33.088,30.037C247.006,241.734,210.268,223.824,197.099,190.208z M256,405.333
            c-56.619,0-85.333-17.941-85.333-53.333c0-55.573,116.779-64,117.952-64c1.243-0.067,2.464-0.356,3.605-0.853l1.792,1.301
            c21.099,15.104,47.317,33.963,47.317,52.885C341.333,383.787,312.619,405.333,256,405.333z"/>
        </g>
    </symbol>
</svg>